<?xml version="1.0" encoding="UTF-8"?>
<!DOCTYPE svg PUBLIC "-//W3C//DTD SVG 1.1//EN" "http://www.w3.org/Graphics/SVG/1.1/DTD/svg11.dtd">
<!-- Creator: CorelDRAW X8 -->
<svg xmlns="http://www.w3.org/2000/svg" xml:space="preserve" width="180.62mm" height="169.49mm" version="1.1" style="shape-rendering:geometricPrecision; text-rendering:geometricPrecision; image-rendering:optimizeQuality; fill-rule:evenodd; clip-rule:evenodd"
viewBox="0 0 18062 16949"
 xmlns:xlink="http://www.w3.org/1999/xlink">
 <defs>
  <style type="text/css">
   <![CDATA[
    .fil6 {fill:#E4EAF8}
    .fil1 {fill:#EAA01C}
    .fil0 {fill:#F4B537}
    .fil3 {fill:#FCD486}
    .fil2 {fill:#FECA57}
    .fil4 {fill:#E30D40}
    .fil5 {fill:#BF1238}
   ]]>
  </style>
 </defs>
 <g id="Capa_x0020_1">
  <metadata id="CorelCorpID_0Corel-Layer"/>
  <g id="_670567728">
   <path class="fil0" d="M14427 3042c0,-1385 0,-2500 0,-2573 0,-258 -207,-469 -461,-469l-12089 0c-254,0 -462,211 -462,469l0 2573 13012 0zm0 0z"/>
   <path class="fil1" d="M2967 0l-1090 0c-254,0 -462,211 -462,469l0 2573 1090 0c0,-1385 0,-2500 0,-2573 0,-258 208,-469 462,-469zm0 0z"/>
   <path class="fil2" d="M11815 3042l2612 -2573c0,-258 -207,-469 -461,-469l-12089 0c-254,0 -462,211 -462,469l2612 2573 7788 0zm0 0z"/>
   <path class="fil0" d="M1415 469l1090 1074c0,-618 0,-1031 0,-1074 0,-258 208,-469 462,-469l-1090 0c-254,0 -462,211 -462,469zm0 0z"/>
   <path class="fil2" d="M11530 13683c0,-1804 1462,-3266 3266,-3266 366,0 718,61 1047,172 0,-2839 0,-6880 0,-7034 0,-309 -253,-562 -562,-562l-14719 0c-309,0 -562,253 -562,562l0 9777c0,309 253,562 562,562l10975 0c-4,-70 -7,-140 -7,-211l0 0zm0 0z"/>
   <path class="fil0" d="M1090 13332c0,-102 0,-9540 0,-9777 0,-309 253,-562 562,-562l-1090 0c-309,0 -562,253 -562,562l0 9777c0,309 253,562 562,562l1090 0c-309,0 -562,-253 -562,-562l0 0zm0 0z"/>
   <path class="fil0" d="M11530 13683c0,-1240 692,-2320 1711,-2872l-2442 -2368 -1193 1157c-939,910 -2431,910 -3369,0l-1193 -1157 -5044 4889c0,309 253,562 562,562l10975 0c-4,-70 -7,-140 -7,-211l0 0zm0 0z"/>
   <path class="fil1" d="M5803 9180l-759 -736 -5044 4888c0,309 253,562 562,562l377 0 4864 -4714zm0 0z"/>
   <path class="fil3" d="M15281 2993l-14719 0c-309,0 -562,253 -562,562l6237 6117c938,910 2430,910 3369,0l6237 -6117c0,-309 -253,-562 -562,-562l0 0zm0 0z"/>
   <path class="fil2" d="M0 3555l1090 1069c0,-619 0,-1022 0,-1069 0,-309 253,-562 562,-562l-1090 0c-309,0 -562,253 -562,562zm0 0z"/>
   <path class="fil4" d="M18062 13664c0,1814 -1471,3285 -3285,3285 -1815,0 -3286,-1471 -3286,-3285 0,-1815 1471,-3286 3286,-3286 1814,0 3285,1471 3285,3286zm0 0z"/>
   <path class="fil5" d="M12582 13664c0,-1629 1185,-2981 2740,-3241 -177,-29 -360,-45 -545,-45 -1815,0 -3286,1471 -3286,3286 0,1814 1471,3285 3286,3285 185,0 368,-15 545,-45 -1555,-260 -2740,-1612 -2740,-3240zm0 0z"/>
   <path class="fil6" d="M15162 13664l694 -694c106,-106 106,-279 0,-385 -107,-107 -279,-107 -386,0l-693 693 -694 -693c-107,-107 -279,-107 -386,0 -106,106 -106,279 0,385l694 694 -694 694c-106,106 -106,279 0,385 107,106 280,106 386,0l694 -694 693 694c107,106 280,106 386,0 106,-106 106,-279 0,-385l-694 -694z"/>
  </g>
 </g>
</svg>
