<?xml version="1.0" encoding="UTF-8"?>
<!DOCTYPE svg PUBLIC "-//W3C//DTD SVG 1.1//EN" "http://www.w3.org/Graphics/SVG/1.1/DTD/svg11.dtd">
<!-- Creator: CorelDRAW X8 -->
<svg xmlns="http://www.w3.org/2000/svg" xml:space="preserve" width="127.59mm" height="53.23mm" version="1.1" style="shape-rendering:geometricPrecision; text-rendering:geometricPrecision; image-rendering:optimizeQuality; fill-rule:evenodd; clip-rule:evenodd"
viewBox="0 0 12759 5323"
 xmlns:xlink="http://www.w3.org/1999/xlink">
 <defs>
  <style type="text/css">
   <![CDATA[
    .str0 {stroke:white;stroke-width:7.62}
    .fil0 {fill:white;fill-rule:nonzero}
   ]]>
  </style>
 </defs>
 <g id="Capa_x0020_1">
  <metadata id="CorelCorpID_0Corel-Layer"/>
  <g id="_441016376">
   <path class="fil0 str0" d="M5835 3518l0 -584 0 -583 0 -584 0 -583 0 -584 0 -583 583 0 0 583 0 584 0 583 0 584 0 583c0,323 262,584 584,584l584 0 583 0 0 583 -583 0 -584 0 -584 0c-322,0 -583,-261 -583,-583z"/>
   <polygon class="fil0 str0" points="0,17 583,17 583,600 583,1184 583,1767 583,2351 583,2934 583,3518 583,4101 0,4101 0,3518 0,2934 0,2351 0,1767 0,1184 0,600 "/>
   <polygon class="fil0 str0" points="1167,2351 583,2351 1167,1767 1750,1767 1750,1184 1750,600 1750,17 2334,17 2334,600 2334,1184 2334,1767 2334,2351 2334,2934 2334,3518 2334,4101 1750,4101 1750,3518 1750,2934 1750,2351 "/>
   <path class="fil0 str0" d="M2917 3518l0 -584 0 -583 0 -584 0 -583 0 -584c0,-322 262,-583 584,-583l583 0 584 0 583 0 0 583 -583 0 -584 0c-322,0 -583,262 -583,584l0 583 0 584 0 583c0,323 261,584 583,584l584 0 583 0 0 583 -583 0 -584 0 -583 0c-322,0 -584,-261 -584,-583z"/>
   <polygon class="fil0 str0" points="4084,2351 3501,2351 4084,1767 4668,1767 5251,1767 5251,2351 4668,2351 "/>
   <path class="fil0 str0" d="M8753 17l583 0 0 583 0 584 0 583 0 0 0 0c-78,118 -171,220 -292,292l0 0 0 0 0 0 0 0c-120,-72 -213,-174 -291,-292l0 0 0 -583 0 -584 0 -583zm0 2334l0 0 0 0c78,-118 171,-219 291,-292l0 0 0 0 0 0 0 0c121,73 214,174 292,292l0 583 0 584 0 583 -583 0 0 -583 0 -584 0 -583z"/>
   <path class="fil0 str0" d="M12145 2832c-372,-642 -615,-570 -809,-887 180,-335 374,-147 673,-834 95,-217 437,-906 457,-1081 -285,-197 -1032,1369 -1261,1737 -64,-112 -1513,-2525 -1278,-1525 18,98 425,888 496,1021 301,557 451,377 677,691 -200,366 -404,337 -682,909 -91,188 -517,1057 -489,1210 259,201 1056,-1616 1300,-1932 223,316 1310,2199 1530,1933 21,-134 -517,-1074 -614,-1242zm-924 -827l0 0c-68,0 -68,-105 0,-105 69,0 68,105 0,105z"/>
   <polygon class="fil0 str0" points="1298,4397 1460,4397 1622,4397 1784,4397 1946,4397 2109,4397 2109,4529 1946,4529 1784,4529 1784,4661 1784,4794 1784,4926 1784,5058 1784,5191 1784,5323 1622,5323 1622,5191 1622,5058 1622,4926 1622,4794 1622,4661 1622,4529 1460,4529 1298,4529 "/>
   <polygon class="fil0 str0" points="2271,4397 2433,4397 2595,4397 2758,4397 2920,4397 2920,4529 2758,4529 2595,4529 2433,4529 2433,4661 2433,4794 2595,4794 2758,4794 2920,4794 2920,4926 2758,4926 2595,4926 2433,4926 2433,5058 2433,5191 2595,5191 2758,5191 2920,5191 2920,5323 2758,5323 2595,5323 2433,5323 2271,5323 2271,5191 2271,5058 2271,4926 2271,4794 2271,4661 2271,4529 "/>
   <polygon class="fil0 str0" points="0,4397 162,4397 162,4529 162,4661 162,4794 162,4926 162,5058 162,5191 162,5323 0,5323 0,5191 0,5058 0,4926 0,4794 0,4661 0,4529 "/>
   <polygon class="fil0 str0" points="324,4397 486,4397 973,5058 973,4926 973,4794 973,4661 973,4529 973,4397 1135,4397 1135,4529 1135,4661 1135,4794 1135,4926 1135,5058 1135,5191 1135,5323 973,5323 486,4661 486,4794 486,4926 486,5058 486,5191 486,5323 324,5323 324,5191 324,5058 324,4926 324,4794 324,4661 324,4529 "/>
   <polygon class="fil0 str0" points="4703,4396 4865,4396 4865,4529 4865,4661 4865,4793 4865,4926 4865,5058 4865,5191 4865,5323 4703,5323 4703,5191 4703,5058 4703,4926 4703,4793 4703,4661 4703,4529 "/>
   <polygon class="fil0 str0" points="5352,4396 5514,4396 5677,4396 5839,4396 5839,4529 5677,4529 5514,4529 5352,4529 5190,4529 5190,4661 5190,4793 5190,4926 5190,5058 5190,5191 5352,5191 5514,5191 5677,5191 5677,5058 5677,4926 5514,4926 5352,4926 5352,4793 5514,4793 5677,4793 5839,4793 5839,4926 5839,5058 5839,5191 5839,5323 5677,5323 5514,5323 5352,5323 5190,5323 5028,5323 5028,5191 5028,5058 5028,4926 5028,4793 5028,4661 5028,4529 5028,4396 5190,4396 "/>
   <polygon class="fil0 str0" points="3082,4397 3244,4397 3244,4529 3244,4661 3244,4794 3244,4926 3244,5058 3244,5191 3406,5191 3569,5191 3731,5191 3731,5323 3569,5323 3406,5323 3244,5323 3082,5323 3082,5191 3082,5058 3082,4926 3082,4794 3082,4661 3082,4529 "/>
   <polygon class="fil0 str0" points="6001,4396 6163,4396 6325,4396 6488,4396 6650,4396 6650,4529 6488,4529 6325,4529 6163,4529 6163,4661 6163,4793 6325,4793 6488,4793 6650,4793 6650,4926 6488,4926 6325,4926 6163,4926 6163,5058 6163,5191 6325,5191 6488,5191 6650,5191 6650,5323 6488,5323 6325,5323 6163,5323 6001,5323 6001,5191 6001,5058 6001,4926 6001,4793 6001,4661 6001,4529 "/>
   <polygon class="fil0 str0" points="6812,4396 6974,4396 7461,5058 7461,4926 7461,4793 7461,4661 7461,4529 7461,4396 7623,4396 7623,4529 7623,4661 7623,4793 7623,4926 7623,5058 7623,5191 7623,5323 7461,5323 6974,4661 6974,4793 6974,4926 6974,5058 6974,5191 6974,5323 6812,5323 6812,5191 6812,5058 6812,4926 6812,4793 6812,4661 6812,4529 "/>
   <polygon class="fil0 str0" points="3893,4396 4055,4396 4055,4529 4055,4661 4055,4793 4055,4926 4055,5058 4055,5191 4217,5191 4379,5191 4541,5191 4541,5323 4379,5323 4217,5323 4055,5323 3893,5323 3893,5191 3893,5058 3893,4926 3893,4793 3893,4661 3893,4529 "/>
   <polygon class="fil0 str0" points="12583,5191 12758,5191 12758,5323 12583,5323 12407,5323 12232,5323 12057,5323 12057,5191 12057,5059 12057,4927 12057,4795 12057,4662 12057,4530 12057,4398 12232,4398 12407,4398 12583,4398 12758,4398 12758,4530 12583,4530 12407,4530 12232,4530 12232,4662 12232,4795 12407,4795 12583,4795 12758,4795 12758,4927 12583,4927 12407,4927 12232,4927 12232,5059 12232,5191 12407,5191 "/>
   <path class="fil0 str0" d="M11531 4398l175 0 175 132 0 132 0 133 0 132 0 132 0 132 -175 132 -175 0 -175 0 -176 0 0 -132 0 -132 0 -132 0 -132 0 -133 0 -132 0 -132 176 0 175 0zm0 793l0 0 175 0 0 -132 0 -132 0 -132 0 -133 0 -132 -175 0 -175 0 0 132 0 133 0 132 0 132 0 132 175 0z"/>
   <path class="fil0 str0" d="M11005 5191l0 132 -175 0 -176 0 -175 0 -175 0 0 -132 0 -132 0 -132 0 -132 0 -133 0 -132 0 -132 175 0 175 0 176 0 175 0 0 132 0 132 0 133 0 132 0 132 0 132zm-175 0l0 0 0 -132 0 -132 0 -132 0 -133 0 -132 -176 0 -175 0 0 132 0 133 0 132 0 132 0 132 175 0 176 0z"/>
   <polygon class="fil0 str0" points="9778,5191 9953,5191 10129,5191 10129,5323 9953,5323 9778,5323 9603,5323 9428,5323 9428,5191 9428,5059 9428,4927 9428,4795 9428,4662 9428,4530 9428,4398 9603,4398 9778,4398 9953,4398 10129,4398 10129,4530 9953,4530 9778,4530 9603,4530 9603,4662 9603,4795 9603,4927 9603,5059 9603,5191 "/>
   <polygon class="fil0 str0" points="7706,4397 7868,4397 8031,4397 8193,4397 8355,4397 8517,4397 8517,4529 8355,4529 8193,4529 8193,4661 8193,4794 8193,4926 8193,5058 8193,5191 8193,5323 8031,5323 8031,5191 8031,5058 8031,4926 8031,4794 8031,4661 8031,4529 7868,4529 7706,4529 "/>
  </g>
 </g>
</svg>
