<?xml version="1.0" encoding="UTF-8"?>
<!DOCTYPE svg PUBLIC "-//W3C//DTD SVG 1.1//EN" "http://www.w3.org/Graphics/SVG/1.1/DTD/svg11.dtd">
<!-- Creator: CorelDRAW X8 -->
<svg xmlns="http://www.w3.org/2000/svg" xml:space="preserve" width="68.66mm" height="86.66mm" version="1.1" style="shape-rendering:geometricPrecision; text-rendering:geometricPrecision; image-rendering:optimizeQuality; fill-rule:evenodd; clip-rule:evenodd"
viewBox="0 0 6866 8666"
 xmlns:xlink="http://www.w3.org/1999/xlink">
 <defs>
  <style type="text/css">
   <![CDATA[
    .fil0 {fill:white}
   ]]>
  </style>
 </defs>
 <g id="Capa_x0020_1">
  <metadata id="CorelCorpID_0Corel-Layer"/>
  <path class="fil0" d="M3433 8666c3302,0 3694,-2244 3316,-4284 -89,-478 -661,-1662 -1289,-2524 -120,-165 -216,-306 -314,-425 -26,-32 314,-675 1351,-799 19,-295 -94,-536 -248,-634 -1110,178 -1909,1077 -2194,2130 -591,329 -1508,150 -1883,-153 304,-385 845,-501 1445,-420 101,-203 221,-443 364,-624 -158,-12 -339,-17 -548,-17 -1457,0 -1542,277 -2027,942 -628,862 -1200,2046 -1289,2524 -378,2040 14,4284 3316,4284zm1610 -6187c0,0 191,243 254,444 -164,371 -965,740 -1865,740 -900,0 -1701,-369 -1866,-740 64,-201 254,-444 254,-444 1075,598 2149,601 3223,0zm-3923 4490c-1143,-1228 84,-3376 84,-3376 900,927 3581,1006 4424,0 0,0 1228,2148 85,3376 -1366,1467 -3233,1461 -4593,0z"/>
 </g>
</svg>
